solid cilindro
   facet normal 6.824249e-02 0.000000e+00 -9.976688e-01
      outer loop
         vertex 5.000000e+00 0.000000e+00 0.000000e+00
         vertex 5.680833e+00 2.000000e+01 4.657032e-02
         vertex 5.680833e+00 0.000000e+00 4.657032e-02
      endloop
   endfacet
   facet normal 2.034556e-01 0.000000e+00 -9.790842e-01
      outer loop
         vertex 5.680833e+00 0.000000e+00 4.657032e-02
         vertex 5.680833e+00 2.000000e+01 4.657032e-02
         vertex 6.348984e+00 2.000000e+01 1.854133e-01
      endloop
   endfacet
   facet normal 2.034556e-01 0.000000e+00 -9.790842e-01
      outer loop
         vertex 5.680833e+00 0.000000e+00 4.657032e-02
         vertex 6.348984e+00 2.000000e+01 1.854133e-01
         vertex 6.348984e+00 0.000000e+00 1.854133e-01
      endloop
   endfacet
   facet normal 3.348801e-01 0.000000e+00 -9.422608e-01
      outer loop
         vertex 6.348984e+00 0.000000e+00 1.854133e-01
         vertex 6.348984e+00 2.000000e+01 1.854133e-01
         vertex 6.992005e+00 2.000000e+01 4.139435e-01
      endloop
   endfacet
   facet normal 3.348801e-01 0.000000e+00 -9.422608e-01
      outer loop
         vertex 6.348984e+00 0.000000e+00 1.854133e-01
         vertex 6.992005e+00 2.000000e+01 4.139435e-01
         vertex 6.992005e+00 0.000000e+00 4.139435e-01
      endloop
   endfacet
   facet normal 4.600651e-01 0.000000e+00 -8.878852e-01
      outer loop
         vertex 6.992005e+00 0.000000e+00 4.139435e-01
         vertex 6.992005e+00 2.000000e+01 4.139435e-01
         vertex 7.597920e+00 2.000000e+01 7.279031e-01
      endloop
   endfacet
   facet normal 4.600651e-01 0.000000e+00 -8.878852e-01
      outer loop
         vertex 6.992005e+00 0.000000e+00 4.139435e-01
         vertex 7.597920e+00 2.000000e+01 7.279031e-01
         vertex 7.597920e+00 0.000000e+00 7.279031e-01
      endloop
   endfacet
   facet normal 5.766801e-01 0.000000e+00 -8.169700e-01
      outer loop
         vertex 7.597920e+00 0.000000e+00 7.279031e-01
         vertex 7.597920e+00 2.000000e+01 7.279031e-01
         vertex 8.155440e+00 2.000000e+01 1.121443e+00
      endloop
   endfacet
   facet normal 5.766801e-01 0.000000e+00 -8.169700e-01
      outer loop
         vertex 7.597920e+00 0.000000e+00 7.279031e-01
         vertex 8.155440e+00 2.000000e+01 1.121443e+00
         vertex 8.155440e+00 0.000000e+00 1.121443e+00
      endloop
   endfacet
   facet normal 6.825530e-01 0.000000e+00 -7.308361e-01
      outer loop
         vertex 8.155440e+00 0.000000e+00 1.121443e+00
         vertex 8.155440e+00 2.000000e+01 1.121443e+00
         vertex 8.654180e+00 2.000000e+01 1.587234e+00
      endloop
   endfacet
   facet normal 6.825530e-01 0.000000e+00 -7.308361e-01
      outer loop
         vertex 8.155440e+00 0.000000e+00 1.121443e+00
         vertex 8.654180e+00 2.000000e+01 1.587234e+00
         vertex 8.654180e+00 0.000000e+00 1.587234e+00
      endloop
   endfacet
   facet normal 7.757114e-01 0.000000e+00 -6.310878e-01
      outer loop
         vertex 8.654180e+00 0.000000e+00 1.587234e+00
         vertex 8.654180e+00 2.000000e+01 1.587234e+00
         vertex 9.084849e+00 2.000000e+01 2.116598e+00
      endloop
   endfacet
   facet normal 7.757114e-01 0.000000e+00 -6.310878e-01
      outer loop
         vertex 8.654180e+00 0.000000e+00 1.587234e+00
         vertex 9.084849e+00 2.000000e+01 2.116598e+00
         vertex 9.084849e+00 0.000000e+00 2.116598e+00
      endloop
   endfacet
   facet normal 8.544193e-01 0.000000e+00 -5.195841e-01
      outer loop
         vertex 9.084849e+00 0.000000e+00 2.116598e+00
         vertex 9.084849e+00 2.000000e+01 2.116598e+00
         vertex 9.439426e+00 2.000000e+01 2.699675e+00
      endloop
   endfacet
   facet normal 8.544193e-01 0.000000e+00 -5.195841e-01
      outer loop
         vertex 9.084849e+00 0.000000e+00 2.116598e+00
         vertex 9.439426e+00 2.000000e+01 2.699675e+00
         vertex 9.439426e+00 0.000000e+00 2.699675e+00
      endloop
   endfacet
   facet normal 9.172112e-01 0.000000e+00 -3.984013e-01
      outer loop
         vertex 9.439426e+00 0.000000e+00 2.699675e+00
         vertex 9.439426e+00 2.000000e+01 2.699675e+00
         vertex 9.711305e+00 2.000000e+01 3.325602e+00
      endloop
   endfacet
   facet normal 9.172112e-01 0.000000e+00 -3.984013e-01
      outer loop
         vertex 9.439426e+00 0.000000e+00 2.699675e+00
         vertex 9.711305e+00 2.000000e+01 3.325602e+00
         vertex 9.711305e+00 0.000000e+00 3.325602e+00
      endloop
   endfacet
   facet normal 9.629174e-01 0.000000e+00 -2.697963e-01
      outer loop
         vertex 9.711305e+00 0.000000e+00 3.325602e+00
         vertex 9.711305e+00 2.000000e+01 3.325602e+00
         vertex 9.895420e+00 2.000000e+01 3.982720e+00
      endloop
   endfacet
   facet normal 9.629174e-01 0.000000e+00 -2.697963e-01
      outer loop
         vertex 9.711305e+00 0.000000e+00 3.325602e+00
         vertex 9.895420e+00 2.000000e+01 3.982720e+00
         vertex 9.895420e+00 0.000000e+00 3.982720e+00
      endloop
   endfacet
   facet normal 9.906859e-01 0.000000e+00 -1.361670e-01
      outer loop
         vertex 9.895420e+00 0.000000e+00 3.982720e+00
         vertex 9.895420e+00 2.000000e+01 3.982720e+00
         vertex 9.988344e+00 2.000000e+01 4.658788e+00
      endloop
   endfacet
   facet normal 9.906859e-01 0.000000e+00 -1.361670e-01
      outer loop
         vertex 9.895420e+00 0.000000e+00 3.982720e+00
         vertex 9.988344e+00 2.000000e+01 4.658788e+00
         vertex 9.988344e+00 0.000000e+00 4.658788e+00
      endloop
   endfacet
   facet normal 1.000000e+00 0.000000e+00 0.000000e+00
      outer loop
         vertex 9.988344e+00 0.000000e+00 4.658788e+00
         vertex 9.988344e+00 2.000000e+01 4.658788e+00
         vertex 9.988344e+00 2.000000e+01 5.341212e+00
      endloop
   endfacet
   facet normal 1.000000e+00 0.000000e+00 0.000000e+00
      outer loop
         vertex 9.988344e+00 0.000000e+00 4.658788e+00
         vertex 9.988344e+00 2.000000e+01 5.341212e+00
         vertex 9.988344e+00 0.000000e+00 5.341212e+00
      endloop
   endfacet
   facet normal 9.906859e-01 -0.000000e+00 1.361670e-01
      outer loop
         vertex 9.988344e+00 0.000000e+00 5.341212e+00
         vertex 9.988344e+00 2.000000e+01 5.341212e+00
         vertex 9.895420e+00 2.000000e+01 6.017280e+00
      endloop
   endfacet
   facet normal 9.906859e-01 0.000000e+00 1.361670e-01
      outer loop
         vertex 9.988344e+00 0.000000e+00 5.341212e+00
         vertex 9.895420e+00 2.000000e+01 6.017280e+00
         vertex 9.895420e+00 0.000000e+00 6.017280e+00
      endloop
   endfacet
   facet normal 9.629174e-01 -0.000000e+00 2.697963e-01
      outer loop
         vertex 9.895420e+00 0.000000e+00 6.017280e+00
         vertex 9.895420e+00 2.000000e+01 6.017280e+00
         vertex 9.711305e+00 2.000000e+01 6.674398e+00
      endloop
   endfacet
   facet normal 9.629174e-01 0.000000e+00 2.697963e-01
      outer loop
         vertex 9.895420e+00 0.000000e+00 6.017280e+00
         vertex 9.711305e+00 2.000000e+01 6.674398e+00
         vertex 9.711305e+00 0.000000e+00 6.674398e+00
      endloop
   endfacet
   facet normal 9.172112e-01 -0.000000e+00 3.984013e-01
      outer loop
         vertex 9.711305e+00 0.000000e+00 6.674398e+00
         vertex 9.711305e+00 2.000000e+01 6.674398e+00
         vertex 9.439426e+00 2.000000e+01 7.300325e+00
      endloop
   endfacet
   facet normal 9.172112e-01 0.000000e+00 3.984013e-01
      outer loop
         vertex 9.711305e+00 0.000000e+00 6.674398e+00
         vertex 9.439426e+00 2.000000e+01 7.300325e+00
         vertex 9.439426e+00 0.000000e+00 7.300325e+00
      endloop
   endfacet
   facet normal 8.544193e-01 -0.000000e+00 5.195841e-01
      outer loop
         vertex 9.439426e+00 0.000000e+00 7.300325e+00
         vertex 9.439426e+00 2.000000e+01 7.300325e+00
         vertex 9.084849e+00 2.000000e+01 7.883402e+00
      endloop
   endfacet
   facet normal 8.544193e-01 0.000000e+00 5.195841e-01
      outer loop
         vertex 9.439426e+00 0.000000e+00 7.300325e+00
         vertex 9.084849e+00 2.000000e+01 7.883402e+00
         vertex 9.084849e+00 0.000000e+00 7.883402e+00
      endloop
   endfacet
   facet normal 7.757114e-01 -0.000000e+00 6.310878e-01
      outer loop
         vertex 9.084849e+00 0.000000e+00 7.883402e+00
         vertex 9.084849e+00 2.000000e+01 7.883402e+00
         vertex 8.654180e+00 2.000000e+01 8.412766e+00
      endloop
   endfacet
   facet normal 7.757114e-01 0.000000e+00 6.310878e-01
      outer loop
         vertex 9.084849e+00 0.000000e+00 7.883402e+00
         vertex 8.654180e+00 2.000000e+01 8.412766e+00
         vertex 8.654180e+00 0.000000e+00 8.412766e+00
      endloop
   endfacet
   facet normal 6.825530e-01 -0.000000e+00 7.308361e-01
      outer loop
         vertex 8.654180e+00 0.000000e+00 8.412766e+00
         vertex 8.654180e+00 2.000000e+01 8.412766e+00
         vertex 8.155440e+00 2.000000e+01 8.878556e+00
      endloop
   endfacet
   facet normal 6.825530e-01 0.000000e+00 7.308361e-01
      outer loop
         vertex 8.654180e+00 0.000000e+00 8.412766e+00
         vertex 8.155440e+00 2.000000e+01 8.878556e+00
         vertex 8.155440e+00 0.000000e+00 8.878556e+00
      endloop
   endfacet
   facet normal 5.766801e-01 -0.000000e+00 8.169700e-01
      outer loop
         vertex 8.155440e+00 0.000000e+00 8.878556e+00
         vertex 8.155440e+00 2.000000e+01 8.878556e+00
         vertex 7.597920e+00 2.000000e+01 9.272097e+00
      endloop
   endfacet
   facet normal 5.766801e-01 0.000000e+00 8.169700e-01
      outer loop
         vertex 8.155440e+00 0.000000e+00 8.878556e+00
         vertex 7.597920e+00 2.000000e+01 9.272097e+00
         vertex 7.597920e+00 0.000000e+00 9.272097e+00
      endloop
   endfacet
   facet normal 4.600651e-01 -0.000000e+00 8.878852e-01
      outer loop
         vertex 7.597920e+00 0.000000e+00 9.272097e+00
         vertex 7.597920e+00 2.000000e+01 9.272097e+00
         vertex 6.992005e+00 2.000000e+01 9.586056e+00
      endloop
   endfacet
   facet normal 4.600651e-01 0.000000e+00 8.878852e-01
      outer loop
         vertex 7.597920e+00 0.000000e+00 9.272097e+00
         vertex 6.992005e+00 2.000000e+01 9.586056e+00
         vertex 6.992005e+00 0.000000e+00 9.586056e+00
      endloop
   endfacet
   facet normal 3.348801e-01 -0.000000e+00 9.422608e-01
      outer loop
         vertex 6.992005e+00 0.000000e+00 9.586056e+00
         vertex 6.992005e+00 2.000000e+01 9.586056e+00
         vertex 6.348984e+00 2.000000e+01 9.814586e+00
      endloop
   endfacet
   facet normal 3.348801e-01 0.000000e+00 9.422608e-01
      outer loop
         vertex 6.992005e+00 0.000000e+00 9.586056e+00
         vertex 6.348984e+00 2.000000e+01 9.814586e+00
         vertex 6.348984e+00 0.000000e+00 9.814586e+00
      endloop
   endfacet
   facet normal 2.034556e-01 -0.000000e+00 9.790842e-01
      outer loop
         vertex 6.348984e+00 0.000000e+00 9.814586e+00
         vertex 6.348984e+00 2.000000e+01 9.814586e+00
         vertex 5.680833e+00 2.000000e+01 9.953429e+00
      endloop
   endfacet
   facet normal 2.034556e-01 0.000000e+00 9.790842e-01
      outer loop
         vertex 6.348984e+00 0.000000e+00 9.814586e+00
         vertex 5.680833e+00 2.000000e+01 9.953429e+00
         vertex 5.680833e+00 0.000000e+00 9.953429e+00
      endloop
   endfacet
   facet normal 6.824249e-02 -0.000000e+00 9.976688e-01
      outer loop
         vertex 5.680833e+00 0.000000e+00 9.953429e+00
         vertex 5.680833e+00 2.000000e+01 9.953429e+00
         vertex 5.000000e+00 2.000000e+01 1.000000e+01
      endloop
   endfacet
   facet normal 6.824249e-02 0.000000e+00 9.976688e-01
      outer loop
         vertex 5.680833e+00 0.000000e+00 9.953429e+00
         vertex 5.000000e+00 2.000000e+01 1.000000e+01
         vertex 5.000000e+00 0.000000e+00 1.000000e+01
      endloop
   endfacet
   facet normal -6.824249e-02 0.000000e+00 9.976688e-01
      outer loop
         vertex 5.000000e+00 0.000000e+00 1.000000e+01
         vertex 5.000000e+00 2.000000e+01 1.000000e+01
         vertex 4.319167e+00 2.000000e+01 9.953429e+00
      endloop
   endfacet
   facet normal -6.824249e-02 0.000000e+00 9.976688e-01
      outer loop
         vertex 5.000000e+00 0.000000e+00 1.000000e+01
         vertex 4.319167e+00 2.000000e+01 9.953429e+00
         vertex 4.319167e+00 0.000000e+00 9.953429e+00
      endloop
   endfacet
   facet normal -2.034556e-01 0.000000e+00 9.790842e-01
      outer loop
         vertex 4.319167e+00 0.000000e+00 9.953429e+00
         vertex 4.319167e+00 2.000000e+01 9.953429e+00
         vertex 3.651016e+00 2.000000e+01 9.814586e+00
      endloop
   endfacet
   facet normal -2.034556e-01 0.000000e+00 9.790842e-01
      outer loop
         vertex 4.319167e+00 0.000000e+00 9.953429e+00
         vertex 3.651016e+00 2.000000e+01 9.814586e+00
         vertex 3.651016e+00 0.000000e+00 9.814586e+00
      endloop
   endfacet
   facet normal -3.348801e-01 0.000000e+00 9.422608e-01
      outer loop
         vertex 3.651016e+00 0.000000e+00 9.814586e+00
         vertex 3.651016e+00 2.000000e+01 9.814586e+00
         vertex 3.007994e+00 2.000000e+01 9.586056e+00
      endloop
   endfacet
   facet normal -3.348801e-01 0.000000e+00 9.422608e-01
      outer loop
         vertex 3.651016e+00 0.000000e+00 9.814586e+00
         vertex 3.007994e+00 2.000000e+01 9.586056e+00
         vertex 3.007994e+00 0.000000e+00 9.586056e+00
      endloop
   endfacet
   facet normal -4.600651e-01 0.000000e+00 8.878852e-01
      outer loop
         vertex 3.007994e+00 0.000000e+00 9.586056e+00
         vertex 3.007994e+00 2.000000e+01 9.586056e+00
         vertex 2.402080e+00 2.000000e+01 9.272097e+00
      endloop
   endfacet
   facet normal -4.600651e-01 0.000000e+00 8.878852e-01
      outer loop
         vertex 3.007994e+00 0.000000e+00 9.586056e+00
         vertex 2.402080e+00 2.000000e+01 9.272097e+00
         vertex 2.402080e+00 0.000000e+00 9.272097e+00
      endloop
   endfacet
   facet normal -5.766801e-01 0.000000e+00 8.169700e-01
      outer loop
         vertex 2.402080e+00 0.000000e+00 9.272097e+00
         vertex 2.402080e+00 2.000000e+01 9.272097e+00
         vertex 1.844560e+00 2.000000e+01 8.878556e+00
      endloop
   endfacet
   facet normal -5.766801e-01 0.000000e+00 8.169700e-01
      outer loop
         vertex 2.402080e+00 0.000000e+00 9.272097e+00
         vertex 1.844560e+00 2.000000e+01 8.878556e+00
         vertex 1.844560e+00 0.000000e+00 8.878556e+00
      endloop
   endfacet
   facet normal -6.825530e-01 0.000000e+00 7.308361e-01
      outer loop
         vertex 1.844560e+00 0.000000e+00 8.878556e+00
         vertex 1.844560e+00 2.000000e+01 8.878556e+00
         vertex 1.345820e+00 2.000000e+01 8.412766e+00
      endloop
   endfacet
   facet normal -6.825530e-01 0.000000e+00 7.308361e-01
      outer loop
         vertex 1.844560e+00 0.000000e+00 8.878556e+00
         vertex 1.345820e+00 2.000000e+01 8.412766e+00
         vertex 1.345820e+00 0.000000e+00 8.412766e+00
      endloop
   endfacet
   facet normal -7.757114e-01 0.000000e+00 6.310878e-01
      outer loop
         vertex 1.345820e+00 0.000000e+00 8.412766e+00
         vertex 1.345820e+00 2.000000e+01 8.412766e+00
         vertex 9.151506e-01 2.000000e+01 7.883402e+00
      endloop
   endfacet
   facet normal -7.757114e-01 0.000000e+00 6.310878e-01
      outer loop
         vertex 1.345820e+00 0.000000e+00 8.412766e+00
         vertex 9.151506e-01 2.000000e+01 7.883402e+00
         vertex 9.151506e-01 0.000000e+00 7.883402e+00
      endloop
   endfacet
   facet normal -8.544193e-01 0.000000e+00 5.195841e-01
      outer loop
         vertex 9.151506e-01 0.000000e+00 7.883402e+00
         vertex 9.151506e-01 2.000000e+01 7.883402e+00
         vertex 5.605738e-01 2.000000e+01 7.300325e+00
      endloop
   endfacet
   facet normal -8.544193e-01 0.000000e+00 5.195841e-01
      outer loop
         vertex 9.151506e-01 0.000000e+00 7.883402e+00
         vertex 5.605738e-01 2.000000e+01 7.300325e+00
         vertex 5.605738e-01 0.000000e+00 7.300325e+00
      endloop
   endfacet
   facet normal -9.172112e-01 0.000000e+00 3.984013e-01
      outer loop
         vertex 5.605738e-01 0.000000e+00 7.300325e+00
         vertex 5.605738e-01 2.000000e+01 7.300325e+00
         vertex 2.886951e-01 2.000000e+01 6.674398e+00
      endloop
   endfacet
   facet normal -9.172112e-01 0.000000e+00 3.984013e-01
      outer loop
         vertex 5.605738e-01 0.000000e+00 7.300325e+00
         vertex 2.886951e-01 2.000000e+01 6.674398e+00
         vertex 2.886951e-01 0.000000e+00 6.674398e+00
      endloop
   endfacet
   facet normal -9.629174e-01 0.000000e+00 2.697963e-01
      outer loop
         vertex 2.886951e-01 0.000000e+00 6.674398e+00
         vertex 2.886951e-01 2.000000e+01 6.674398e+00
         vertex 1.045796e-01 2.000000e+01 6.017280e+00
      endloop
   endfacet
   facet normal -9.629174e-01 0.000000e+00 2.697963e-01
      outer loop
         vertex 2.886951e-01 0.000000e+00 6.674398e+00
         vertex 1.045796e-01 2.000000e+01 6.017280e+00
         vertex 1.045796e-01 0.000000e+00 6.017280e+00
      endloop
   endfacet
   facet normal -9.906859e-01 0.000000e+00 1.361670e-01
      outer loop
         vertex 1.045796e-01 0.000000e+00 6.017280e+00
         vertex 1.045796e-01 2.000000e+01 6.017280e+00
         vertex 1.165597e-02 2.000000e+01 5.341212e+00
      endloop
   endfacet
   facet normal -9.906859e-01 0.000000e+00 1.361670e-01
      outer loop
         vertex 1.045796e-01 0.000000e+00 6.017280e+00
         vertex 1.165597e-02 2.000000e+01 5.341212e+00
         vertex 1.165597e-02 0.000000e+00 5.341212e+00
      endloop
   endfacet
   facet normal -1.000000e+00 0.000000e+00 0.000000e+00
      outer loop
         vertex 1.165597e-02 0.000000e+00 5.341212e+00
         vertex 1.165597e-02 2.000000e+01 5.341212e+00
         vertex 1.165597e-02 2.000000e+01 4.658788e+00
      endloop
   endfacet
   facet normal -1.000000e+00 0.000000e+00 0.000000e+00
      outer loop
         vertex 1.165597e-02 0.000000e+00 5.341212e+00
         vertex 1.165597e-02 2.000000e+01 4.658788e+00
         vertex 1.165597e-02 0.000000e+00 4.658788e+00
      endloop
   endfacet
   facet normal -9.906859e-01 0.000000e+00 -1.361670e-01
      outer loop
         vertex 1.165597e-02 0.000000e+00 4.658788e+00
         vertex 1.165597e-02 2.000000e+01 4.658788e+00
         vertex 1.045796e-01 2.000000e+01 3.982720e+00
      endloop
   endfacet
   facet normal -9.906859e-01 0.000000e+00 -1.361670e-01
      outer loop
         vertex 1.165597e-02 0.000000e+00 4.658788e+00
         vertex 1.045796e-01 2.000000e+01 3.982720e+00
         vertex 1.045796e-01 0.000000e+00 3.982720e+00
      endloop
   endfacet
   facet normal -9.629174e-01 0.000000e+00 -2.697963e-01
      outer loop
         vertex 1.045796e-01 0.000000e+00 3.982720e+00
         vertex 1.045796e-01 2.000000e+01 3.982720e+00
         vertex 2.886951e-01 2.000000e+01 3.325602e+00
      endloop
   endfacet
   facet normal -9.629174e-01 0.000000e+00 -2.697963e-01
      outer loop
         vertex 1.045796e-01 0.000000e+00 3.982720e+00
         vertex 2.886951e-01 2.000000e+01 3.325602e+00
         vertex 2.886951e-01 0.000000e+00 3.325602e+00
      endloop
   endfacet
   facet normal -9.172112e-01 0.000000e+00 -3.984013e-01
      outer loop
         vertex 2.886951e-01 0.000000e+00 3.325602e+00
         vertex 2.886951e-01 2.000000e+01 3.325602e+00
         vertex 5.605738e-01 2.000000e+01 2.699675e+00
      endloop
   endfacet
   facet normal -9.172112e-01 0.000000e+00 -3.984013e-01
      outer loop
         vertex 2.886951e-01 0.000000e+00 3.325602e+00
         vertex 5.605738e-01 2.000000e+01 2.699675e+00
         vertex 5.605738e-01 0.000000e+00 2.699675e+00
      endloop
   endfacet
   facet normal -8.544193e-01 0.000000e+00 -5.195841e-01
      outer loop
         vertex 5.605738e-01 0.000000e+00 2.699675e+00
         vertex 5.605738e-01 2.000000e+01 2.699675e+00
         vertex 9.151506e-01 2.000000e+01 2.116598e+00
      endloop
   endfacet
   facet normal -8.544193e-01 0.000000e+00 -5.195841e-01
      outer loop
         vertex 5.605738e-01 0.000000e+00 2.699675e+00
         vertex 9.151506e-01 2.000000e+01 2.116598e+00
         vertex 9.151506e-01 0.000000e+00 2.116598e+00
      endloop
   endfacet
   facet normal -7.757114e-01 0.000000e+00 -6.310878e-01
      outer loop
         vertex 9.151506e-01 0.000000e+00 2.116598e+00
         vertex 9.151506e-01 2.000000e+01 2.116598e+00
         vertex 1.345820e+00 2.000000e+01 1.587234e+00
      endloop
   endfacet
   facet normal -7.757114e-01 0.000000e+00 -6.310878e-01
      outer loop
         vertex 9.151506e-01 0.000000e+00 2.116598e+00
         vertex 1.345820e+00 2.000000e+01 1.587234e+00
         vertex 1.345820e+00 0.000000e+00 1.587234e+00
      endloop
   endfacet
   facet normal -6.825530e-01 0.000000e+00 -7.308361e-01
      outer loop
         vertex 1.345820e+00 0.000000e+00 1.587234e+00
         vertex 1.345820e+00 2.000000e+01 1.587234e+00
         vertex 1.844560e+00 2.000000e+01 1.121443e+00
      endloop
   endfacet
   facet normal -6.825530e-01 0.000000e+00 -7.308361e-01
      outer loop
         vertex 1.345820e+00 0.000000e+00 1.587234e+00
         vertex 1.844560e+00 2.000000e+01 1.121443e+00
         vertex 1.844560e+00 0.000000e+00 1.121443e+00
      endloop
   endfacet
   facet normal -5.766801e-01 0.000000e+00 -8.169700e-01
      outer loop
         vertex 1.844560e+00 0.000000e+00 1.121443e+00
         vertex 1.844560e+00 2.000000e+01 1.121443e+00
         vertex 2.402080e+00 2.000000e+01 7.279031e-01
      endloop
   endfacet
   facet normal -5.766801e-01 0.000000e+00 -8.169700e-01
      outer loop
         vertex 1.844560e+00 0.000000e+00 1.121443e+00
         vertex 2.402080e+00 2.000000e+01 7.279031e-01
         vertex 2.402080e+00 0.000000e+00 7.279031e-01
      endloop
   endfacet
   facet normal -4.600651e-01 0.000000e+00 -8.878852e-01
      outer loop
         vertex 2.402080e+00 0.000000e+00 7.279031e-01
         vertex 2.402080e+00 2.000000e+01 7.279031e-01
         vertex 3.007994e+00 2.000000e+01 4.139435e-01
      endloop
   endfacet
   facet normal -4.600651e-01 0.000000e+00 -8.878852e-01
      outer loop
         vertex 2.402080e+00 0.000000e+00 7.279031e-01
         vertex 3.007994e+00 2.000000e+01 4.139435e-01
         vertex 3.007994e+00 0.000000e+00 4.139435e-01
      endloop
   endfacet
   facet normal -3.348801e-01 0.000000e+00 -9.422608e-01
      outer loop
         vertex 3.007994e+00 0.000000e+00 4.139435e-01
         vertex 3.007994e+00 2.000000e+01 4.139435e-01
         vertex 3.651016e+00 2.000000e+01 1.854133e-01
      endloop
   endfacet
   facet normal -3.348801e-01 0.000000e+00 -9.422608e-01
      outer loop
         vertex 3.007994e+00 0.000000e+00 4.139435e-01
         vertex 3.651016e+00 2.000000e+01 1.854133e-01
         vertex 3.651016e+00 0.000000e+00 1.854133e-01
      endloop
   endfacet
   facet normal -2.034556e-01 0.000000e+00 -9.790842e-01
      outer loop
         vertex 3.651016e+00 0.000000e+00 1.854133e-01
         vertex 3.651016e+00 2.000000e+01 1.854133e-01
         vertex 4.319167e+00 2.000000e+01 4.657032e-02
      endloop
   endfacet
   facet normal -2.034556e-01 0.000000e+00 -9.790842e-01
      outer loop
         vertex 3.651016e+00 0.000000e+00 1.854133e-01
         vertex 4.319167e+00 2.000000e+01 4.657032e-02
         vertex 4.319167e+00 0.000000e+00 4.657032e-02
      endloop
   endfacet
   facet normal -6.824249e-02 0.000000e+00 -9.976688e-01
      outer loop
         vertex 4.319167e+00 0.000000e+00 4.657032e-02
         vertex 4.319167e+00 2.000000e+01 4.657032e-02
         vertex 5.000000e+00 2.000000e+01 0.000000e+00
      endloop
   endfacet
   facet normal -6.824249e-02 0.000000e+00 -9.976688e-01
      outer loop
         vertex 4.319167e+00 0.000000e+00 4.657032e-02
         vertex 5.000000e+00 2.000000e+01 0.000000e+00
         vertex 5.000000e+00 0.000000e+00 0.000000e+00
      endloop
   endfacet
   facet normal 6.824249e-02 0.000000e+00 -9.976688e-01
      outer loop
         vertex 5.000000e+00 0.000000e+00 0.000000e+00
         vertex 5.000000e+00 2.000000e+01 0.000000e+00
         vertex 5.680833e+00 2.000000e+01 4.657032e-02
      endloop
   endfacet
   facet normal 0.000000e+00 1.000000e+00 0.000000e+00
      outer loop
         vertex 5.000000e+00 2.000000e+01 1.000000e+01
         vertex 5.680833e+00 2.000000e+01 9.953429e+00
         vertex 5.000000e+00 2.000000e+01 5.000000e+00
      endloop
   endfacet
   facet normal -0.000000e+00 1.000000e+00 0.000000e+00
      outer loop
         vertex 3.007994e+00 2.000000e+01 9.586056e+00
         vertex 3.651016e+00 2.000000e+01 9.814586e+00
         vertex 5.000000e+00 2.000000e+01 5.000000e+00
      endloop
   endfacet
   facet normal 0.000000e+00 1.000000e+00 0.000000e+00
      outer loop
         vertex 5.000000e+00 2.000000e+01 5.000000e+00
         vertex 3.651016e+00 2.000000e+01 9.814586e+00
         vertex 4.319167e+00 2.000000e+01 9.953429e+00
      endloop
   endfacet
   facet normal 0.000000e+00 1.000000e+00 -0.000000e+00
      outer loop
         vertex 5.000000e+00 2.000000e+01 5.000000e+00
         vertex 4.319167e+00 2.000000e+01 9.953429e+00
         vertex 5.000000e+00 2.000000e+01 1.000000e+01
      endloop
   endfacet
   facet normal -0.000000e+00 1.000000e+00 0.000000e+00
      outer loop
         vertex 1.345820e+00 2.000000e+01 8.412766e+00
         vertex 1.844560e+00 2.000000e+01 8.878556e+00
         vertex 5.000000e+00 2.000000e+01 5.000000e+00
      endloop
   endfacet
   facet normal 0.000000e+00 1.000000e+00 0.000000e+00
      outer loop
         vertex 5.000000e+00 2.000000e+01 5.000000e+00
         vertex 1.844560e+00 2.000000e+01 8.878556e+00
         vertex 2.402080e+00 2.000000e+01 9.272097e+00
      endloop
   endfacet
   facet normal 0.000000e+00 1.000000e+00 0.000000e+00
      outer loop
         vertex 5.000000e+00 2.000000e+01 5.000000e+00
         vertex 2.402080e+00 2.000000e+01 9.272097e+00
         vertex 3.007994e+00 2.000000e+01 9.586056e+00
      endloop
   endfacet
   facet normal -0.000000e+00 1.000000e+00 0.000000e+00
      outer loop
         vertex 2.886951e-01 2.000000e+01 6.674398e+00
         vertex 5.605738e-01 2.000000e+01 7.300325e+00
         vertex 5.000000e+00 2.000000e+01 5.000000e+00
      endloop
   endfacet
   facet normal 0.000000e+00 1.000000e+00 0.000000e+00
      outer loop
         vertex 5.000000e+00 2.000000e+01 5.000000e+00
         vertex 5.605738e-01 2.000000e+01 7.300325e+00
         vertex 9.151506e-01 2.000000e+01 7.883402e+00
      endloop
   endfacet
   facet normal 0.000000e+00 1.000000e+00 0.000000e+00
      outer loop
         vertex 5.000000e+00 2.000000e+01 5.000000e+00
         vertex 9.151506e-01 2.000000e+01 7.883402e+00
         vertex 1.345820e+00 2.000000e+01 8.412766e+00
      endloop
   endfacet
   facet normal 0.000000e+00 1.000000e+00 0.000000e+00
      outer loop
         vertex 1.165597e-02 2.000000e+01 4.658788e+00
         vertex 1.165597e-02 2.000000e+01 5.341212e+00
         vertex 5.000000e+00 2.000000e+01 5.000000e+00
      endloop
   endfacet
   facet normal 0.000000e+00 1.000000e+00 0.000000e+00
      outer loop
         vertex 5.000000e+00 2.000000e+01 5.000000e+00
         vertex 1.165597e-02 2.000000e+01 5.341212e+00
         vertex 1.045796e-01 2.000000e+01 6.017280e+00
      endloop
   endfacet
   facet normal 0.000000e+00 1.000000e+00 0.000000e+00
      outer loop
         vertex 5.000000e+00 2.000000e+01 5.000000e+00
         vertex 1.045796e-01 2.000000e+01 6.017280e+00
         vertex 2.886951e-01 2.000000e+01 6.674398e+00
      endloop
   endfacet
   facet normal 0.000000e+00 1.000000e+00 -0.000000e+00
      outer loop
         vertex 5.605738e-01 2.000000e+01 2.699675e+00
         vertex 2.886951e-01 2.000000e+01 3.325602e+00
         vertex 5.000000e+00 2.000000e+01 5.000000e+00
      endloop
   endfacet
   facet normal 0.000000e+00 1.000000e+00 0.000000e+00
      outer loop
         vertex 5.000000e+00 2.000000e+01 5.000000e+00
         vertex 2.886951e-01 2.000000e+01 3.325602e+00
         vertex 1.045796e-01 2.000000e+01 3.982720e+00
      endloop
   endfacet
   facet normal 0.000000e+00 1.000000e+00 0.000000e+00
      outer loop
         vertex 5.000000e+00 2.000000e+01 5.000000e+00
         vertex 1.045796e-01 2.000000e+01 3.982720e+00
         vertex 1.165597e-02 2.000000e+01 4.658788e+00
      endloop
   endfacet
   facet normal 0.000000e+00 1.000000e+00 -0.000000e+00
      outer loop
         vertex 1.844560e+00 2.000000e+01 1.121443e+00
         vertex 1.345820e+00 2.000000e+01 1.587234e+00
         vertex 5.000000e+00 2.000000e+01 5.000000e+00
      endloop
   endfacet
   facet normal 0.000000e+00 1.000000e+00 0.000000e+00
      outer loop
         vertex 5.000000e+00 2.000000e+01 5.000000e+00
         vertex 1.345820e+00 2.000000e+01 1.587234e+00
         vertex 9.151506e-01 2.000000e+01 2.116598e+00
      endloop
   endfacet
   facet normal 0.000000e+00 1.000000e+00 0.000000e+00
      outer loop
         vertex 5.000000e+00 2.000000e+01 5.000000e+00
         vertex 9.151506e-01 2.000000e+01 2.116598e+00
         vertex 5.605738e-01 2.000000e+01 2.699675e+00
      endloop
   endfacet
   facet normal 0.000000e+00 1.000000e+00 -0.000000e+00
      outer loop
         vertex 3.651016e+00 2.000000e+01 1.854133e-01
         vertex 3.007994e+00 2.000000e+01 4.139435e-01
         vertex 5.000000e+00 2.000000e+01 5.000000e+00
      endloop
   endfacet
   facet normal 0.000000e+00 1.000000e+00 0.000000e+00
      outer loop
         vertex 5.000000e+00 2.000000e+01 5.000000e+00
         vertex 3.007994e+00 2.000000e+01 4.139435e-01
         vertex 2.402080e+00 2.000000e+01 7.279031e-01
      endloop
   endfacet
   facet normal 0.000000e+00 1.000000e+00 0.000000e+00
      outer loop
         vertex 5.000000e+00 2.000000e+01 5.000000e+00
         vertex 2.402080e+00 2.000000e+01 7.279031e-01
         vertex 1.844560e+00 2.000000e+01 1.121443e+00
      endloop
   endfacet
   facet normal 0.000000e+00 1.000000e+00 0.000000e+00
      outer loop
         vertex 5.680833e+00 2.000000e+01 4.657032e-02
         vertex 5.000000e+00 2.000000e+01 0.000000e+00
         vertex 5.000000e+00 2.000000e+01 5.000000e+00
      endloop
   endfacet
   facet normal 0.000000e+00 1.000000e+00 0.000000e+00
      outer loop
         vertex 5.000000e+00 2.000000e+01 5.000000e+00
         vertex 5.000000e+00 2.000000e+01 0.000000e+00
         vertex 4.319167e+00 2.000000e+01 4.657032e-02
      endloop
   endfacet
   facet normal 0.000000e+00 1.000000e+00 0.000000e+00
      outer loop
         vertex 5.000000e+00 2.000000e+01 5.000000e+00
         vertex 4.319167e+00 2.000000e+01 4.657032e-02
         vertex 3.651016e+00 2.000000e+01 1.854133e-01
      endloop
   endfacet
   facet normal 0.000000e+00 1.000000e+00 0.000000e+00
      outer loop
         vertex 7.597920e+00 2.000000e+01 7.279031e-01
         vertex 6.992005e+00 2.000000e+01 4.139435e-01
         vertex 5.000000e+00 2.000000e+01 5.000000e+00
      endloop
   endfacet
   facet normal 0.000000e+00 1.000000e+00 0.000000e+00
      outer loop
         vertex 5.000000e+00 2.000000e+01 5.000000e+00
         vertex 6.992005e+00 2.000000e+01 4.139435e-01
         vertex 6.348984e+00 2.000000e+01 1.854133e-01
      endloop
   endfacet
   facet normal 0.000000e+00 1.000000e+00 0.000000e+00
      outer loop
         vertex 5.000000e+00 2.000000e+01 5.000000e+00
         vertex 6.348984e+00 2.000000e+01 1.854133e-01
         vertex 5.680833e+00 2.000000e+01 4.657032e-02
      endloop
   endfacet
   facet normal 0.000000e+00 1.000000e+00 0.000000e+00
      outer loop
         vertex 9.084849e+00 2.000000e+01 2.116598e+00
         vertex 8.654180e+00 2.000000e+01 1.587234e+00
         vertex 5.000000e+00 2.000000e+01 5.000000e+00
      endloop
   endfacet
   facet normal 0.000000e+00 1.000000e+00 0.000000e+00
      outer loop
         vertex 5.000000e+00 2.000000e+01 5.000000e+00
         vertex 8.654180e+00 2.000000e+01 1.587234e+00
         vertex 8.155440e+00 2.000000e+01 1.121443e+00
      endloop
   endfacet
   facet normal 0.000000e+00 1.000000e+00 0.000000e+00
      outer loop
         vertex 5.000000e+00 2.000000e+01 5.000000e+00
         vertex 8.155440e+00 2.000000e+01 1.121443e+00
         vertex 7.597920e+00 2.000000e+01 7.279031e-01
      endloop
   endfacet
   facet normal 0.000000e+00 1.000000e+00 0.000000e+00
      outer loop
         vertex 9.895420e+00 2.000000e+01 3.982720e+00
         vertex 9.711305e+00 2.000000e+01 3.325602e+00
         vertex 5.000000e+00 2.000000e+01 5.000000e+00
      endloop
   endfacet
   facet normal 0.000000e+00 1.000000e+00 0.000000e+00
      outer loop
         vertex 5.000000e+00 2.000000e+01 5.000000e+00
         vertex 9.711305e+00 2.000000e+01 3.325602e+00
         vertex 9.439426e+00 2.000000e+01 2.699675e+00
      endloop
   endfacet
   facet normal 0.000000e+00 1.000000e+00 0.000000e+00
      outer loop
         vertex 5.000000e+00 2.000000e+01 5.000000e+00
         vertex 9.439426e+00 2.000000e+01 2.699675e+00
         vertex 9.084849e+00 2.000000e+01 2.116598e+00
      endloop
   endfacet
   facet normal 0.000000e+00 1.000000e+00 0.000000e+00
      outer loop
         vertex 9.895420e+00 2.000000e+01 6.017280e+00
         vertex 9.988344e+00 2.000000e+01 5.341212e+00
         vertex 5.000000e+00 2.000000e+01 5.000000e+00
      endloop
   endfacet
   facet normal -0.000000e+00 1.000000e+00 0.000000e+00
      outer loop
         vertex 5.000000e+00 2.000000e+01 5.000000e+00
         vertex 9.988344e+00 2.000000e+01 5.341212e+00
         vertex 9.988344e+00 2.000000e+01 4.658788e+00
      endloop
   endfacet
   facet normal 0.000000e+00 1.000000e+00 0.000000e+00
      outer loop
         vertex 5.000000e+00 2.000000e+01 5.000000e+00
         vertex 9.988344e+00 2.000000e+01 4.658788e+00
         vertex 9.895420e+00 2.000000e+01 3.982720e+00
      endloop
   endfacet
   facet normal 0.000000e+00 1.000000e+00 0.000000e+00
      outer loop
         vertex 9.084849e+00 2.000000e+01 7.883402e+00
         vertex 9.439426e+00 2.000000e+01 7.300325e+00
         vertex 5.000000e+00 2.000000e+01 5.000000e+00
      endloop
   endfacet
   facet normal 0.000000e+00 1.000000e+00 0.000000e+00
      outer loop
         vertex 5.000000e+00 2.000000e+01 5.000000e+00
         vertex 9.439426e+00 2.000000e+01 7.300325e+00
         vertex 9.711305e+00 2.000000e+01 6.674398e+00
      endloop
   endfacet
   facet normal 0.000000e+00 1.000000e+00 0.000000e+00
      outer loop
         vertex 5.000000e+00 2.000000e+01 5.000000e+00
         vertex 9.711305e+00 2.000000e+01 6.674398e+00
         vertex 9.895420e+00 2.000000e+01 6.017280e+00
      endloop
   endfacet
   facet normal 0.000000e+00 1.000000e+00 0.000000e+00
      outer loop
         vertex 7.597920e+00 2.000000e+01 9.272097e+00
         vertex 8.155440e+00 2.000000e+01 8.878556e+00
         vertex 5.000000e+00 2.000000e+01 5.000000e+00
      endloop
   endfacet
   facet normal 0.000000e+00 1.000000e+00 0.000000e+00
      outer loop
         vertex 5.000000e+00 2.000000e+01 5.000000e+00
         vertex 8.155440e+00 2.000000e+01 8.878556e+00
         vertex 8.654180e+00 2.000000e+01 8.412766e+00
      endloop
   endfacet
   facet normal 0.000000e+00 1.000000e+00 0.000000e+00
      outer loop
         vertex 5.000000e+00 2.000000e+01 5.000000e+00
         vertex 8.654180e+00 2.000000e+01 8.412766e+00
         vertex 9.084849e+00 2.000000e+01 7.883402e+00
      endloop
   endfacet
   facet normal 0.000000e+00 1.000000e+00 0.000000e+00
      outer loop
         vertex 5.680833e+00 2.000000e+01 9.953429e+00
         vertex 6.348984e+00 2.000000e+01 9.814586e+00
         vertex 5.000000e+00 2.000000e+01 5.000000e+00
      endloop
   endfacet
   facet normal 0.000000e+00 1.000000e+00 0.000000e+00
      outer loop
         vertex 5.000000e+00 2.000000e+01 5.000000e+00
         vertex 6.348984e+00 2.000000e+01 9.814586e+00
         vertex 6.992005e+00 2.000000e+01 9.586056e+00
      endloop
   endfacet
   facet normal 0.000000e+00 1.000000e+00 0.000000e+00
      outer loop
         vertex 5.000000e+00 2.000000e+01 5.000000e+00
         vertex 6.992005e+00 2.000000e+01 9.586056e+00
         vertex 7.597920e+00 2.000000e+01 9.272097e+00
      endloop
   endfacet
   facet normal 0.000000e+00 -1.000000e+00 0.000000e+00
      outer loop
         vertex 5.000000e+00 0.000000e+00 1.000000e+01
         vertex 4.319167e+00 0.000000e+00 9.953429e+00
         vertex 5.000000e+00 0.000000e+00 5.000000e+00
      endloop
   endfacet
   facet normal -0.000000e+00 -1.000000e+00 0.000000e+00
      outer loop
         vertex 6.992005e+00 0.000000e+00 9.586056e+00
         vertex 6.348984e+00 0.000000e+00 9.814586e+00
         vertex 5.000000e+00 0.000000e+00 5.000000e+00
      endloop
   endfacet
   facet normal 0.000000e+00 -1.000000e+00 0.000000e+00
      outer loop
         vertex 5.000000e+00 0.000000e+00 5.000000e+00
         vertex 6.348984e+00 0.000000e+00 9.814586e+00
         vertex 5.680833e+00 0.000000e+00 9.953429e+00
      endloop
   endfacet
   facet normal 0.000000e+00 -1.000000e+00 0.000000e+00
      outer loop
         vertex 5.000000e+00 0.000000e+00 5.000000e+00
         vertex 5.680833e+00 0.000000e+00 9.953429e+00
         vertex 5.000000e+00 0.000000e+00 1.000000e+01
      endloop
   endfacet
   facet normal -0.000000e+00 -1.000000e+00 0.000000e+00
      outer loop
         vertex 8.654180e+00 0.000000e+00 8.412766e+00
         vertex 8.155440e+00 0.000000e+00 8.878556e+00
         vertex 5.000000e+00 0.000000e+00 5.000000e+00
      endloop
   endfacet
   facet normal 0.000000e+00 -1.000000e+00 0.000000e+00
      outer loop
         vertex 5.000000e+00 0.000000e+00 5.000000e+00
         vertex 8.155440e+00 0.000000e+00 8.878556e+00
         vertex 7.597920e+00 0.000000e+00 9.272097e+00
      endloop
   endfacet
   facet normal 0.000000e+00 -1.000000e+00 0.000000e+00
      outer loop
         vertex 5.000000e+00 0.000000e+00 5.000000e+00
         vertex 7.597920e+00 0.000000e+00 9.272097e+00
         vertex 6.992005e+00 0.000000e+00 9.586056e+00
      endloop
   endfacet
   facet normal -0.000000e+00 -1.000000e+00 0.000000e+00
      outer loop
         vertex 9.711305e+00 0.000000e+00 6.674398e+00
         vertex 9.439426e+00 0.000000e+00 7.300325e+00
         vertex 5.000000e+00 0.000000e+00 5.000000e+00
      endloop
   endfacet
   facet normal 0.000000e+00 -1.000000e+00 0.000000e+00
      outer loop
         vertex 5.000000e+00 0.000000e+00 5.000000e+00
         vertex 9.439426e+00 0.000000e+00 7.300325e+00
         vertex 9.084849e+00 0.000000e+00 7.883402e+00
      endloop
   endfacet
   facet normal 0.000000e+00 -1.000000e+00 0.000000e+00
      outer loop
         vertex 5.000000e+00 0.000000e+00 5.000000e+00
         vertex 9.084849e+00 0.000000e+00 7.883402e+00
         vertex 8.654180e+00 0.000000e+00 8.412766e+00
      endloop
   endfacet
   facet normal 0.000000e+00 -1.000000e+00 0.000000e+00
      outer loop
         vertex 9.988344e+00 0.000000e+00 4.658788e+00
         vertex 9.988344e+00 0.000000e+00 5.341212e+00
         vertex 5.000000e+00 0.000000e+00 5.000000e+00
      endloop
   endfacet
   facet normal 0.000000e+00 -1.000000e+00 0.000000e+00
      outer loop
         vertex 5.000000e+00 0.000000e+00 5.000000e+00
         vertex 9.988344e+00 0.000000e+00 5.341212e+00
         vertex 9.895420e+00 0.000000e+00 6.017280e+00
      endloop
   endfacet
   facet normal 0.000000e+00 -1.000000e+00 0.000000e+00
      outer loop
         vertex 5.000000e+00 0.000000e+00 5.000000e+00
         vertex 9.895420e+00 0.000000e+00 6.017280e+00
         vertex 9.711305e+00 0.000000e+00 6.674398e+00
      endloop
   endfacet
   facet normal 0.000000e+00 -1.000000e+00 0.000000e+00
      outer loop
         vertex 9.439426e+00 0.000000e+00 2.699675e+00
         vertex 9.711305e+00 0.000000e+00 3.325602e+00
         vertex 5.000000e+00 0.000000e+00 5.000000e+00
      endloop
   endfacet
   facet normal 0.000000e+00 -1.000000e+00 0.000000e+00
      outer loop
         vertex 5.000000e+00 0.000000e+00 5.000000e+00
         vertex 9.711305e+00 0.000000e+00 3.325602e+00
         vertex 9.895420e+00 0.000000e+00 3.982720e+00
      endloop
   endfacet
   facet normal 0.000000e+00 -1.000000e+00 0.000000e+00
      outer loop
         vertex 5.000000e+00 0.000000e+00 5.000000e+00
         vertex 9.895420e+00 0.000000e+00 3.982720e+00
         vertex 9.988344e+00 0.000000e+00 4.658788e+00
      endloop
   endfacet
   facet normal 0.000000e+00 -1.000000e+00 0.000000e+00
      outer loop
         vertex 8.155440e+00 0.000000e+00 1.121443e+00
         vertex 8.654180e+00 0.000000e+00 1.587234e+00
         vertex 5.000000e+00 0.000000e+00 5.000000e+00
      endloop
   endfacet
   facet normal 0.000000e+00 -1.000000e+00 0.000000e+00
      outer loop
         vertex 5.000000e+00 0.000000e+00 5.000000e+00
         vertex 8.654180e+00 0.000000e+00 1.587234e+00
         vertex 9.084849e+00 0.000000e+00 2.116598e+00
      endloop
   endfacet
   facet normal 0.000000e+00 -1.000000e+00 0.000000e+00
      outer loop
         vertex 5.000000e+00 0.000000e+00 5.000000e+00
         vertex 9.084849e+00 0.000000e+00 2.116598e+00
         vertex 9.439426e+00 0.000000e+00 2.699675e+00
      endloop
   endfacet
   facet normal 0.000000e+00 -1.000000e+00 0.000000e+00
      outer loop
         vertex 6.348984e+00 0.000000e+00 1.854133e-01
         vertex 6.992005e+00 0.000000e+00 4.139435e-01
         vertex 5.000000e+00 0.000000e+00 5.000000e+00
      endloop
   endfacet
   facet normal 0.000000e+00 -1.000000e+00 0.000000e+00
      outer loop
         vertex 5.000000e+00 0.000000e+00 5.000000e+00
         vertex 6.992005e+00 0.000000e+00 4.139435e-01
         vertex 7.597920e+00 0.000000e+00 7.279031e-01
      endloop
   endfacet
   facet normal 0.000000e+00 -1.000000e+00 0.000000e+00
      outer loop
         vertex 5.000000e+00 0.000000e+00 5.000000e+00
         vertex 7.597920e+00 0.000000e+00 7.279031e-01
         vertex 8.155440e+00 0.000000e+00 1.121443e+00
      endloop
   endfacet
   facet normal 0.000000e+00 -1.000000e+00 0.000000e+00
      outer loop
         vertex 4.319167e+00 0.000000e+00 4.657032e-02
         vertex 5.000000e+00 0.000000e+00 0.000000e+00
         vertex 5.000000e+00 0.000000e+00 5.000000e+00
      endloop
   endfacet
   facet normal 0.000000e+00 -1.000000e+00 0.000000e+00
      outer loop
         vertex 5.000000e+00 0.000000e+00 5.000000e+00
         vertex 5.000000e+00 0.000000e+00 0.000000e+00
         vertex 5.680833e+00 0.000000e+00 4.657032e-02
      endloop
   endfacet
   facet normal 0.000000e+00 -1.000000e+00 0.000000e+00
      outer loop
         vertex 5.000000e+00 0.000000e+00 5.000000e+00
         vertex 5.680833e+00 0.000000e+00 4.657032e-02
         vertex 6.348984e+00 0.000000e+00 1.854133e-01
      endloop
   endfacet
   facet normal 0.000000e+00 -1.000000e+00 0.000000e+00
      outer loop
         vertex 2.402080e+00 0.000000e+00 7.279031e-01
         vertex 3.007994e+00 0.000000e+00 4.139435e-01
         vertex 5.000000e+00 0.000000e+00 5.000000e+00
      endloop
   endfacet
   facet normal 0.000000e+00 -1.000000e+00 0.000000e+00
      outer loop
         vertex 5.000000e+00 0.000000e+00 5.000000e+00
         vertex 3.007994e+00 0.000000e+00 4.139435e-01
         vertex 3.651016e+00 0.000000e+00 1.854133e-01
      endloop
   endfacet
   facet normal 0.000000e+00 -1.000000e+00 0.000000e+00
      outer loop
         vertex 5.000000e+00 0.000000e+00 5.000000e+00
         vertex 3.651016e+00 0.000000e+00 1.854133e-01
         vertex 4.319167e+00 0.000000e+00 4.657032e-02
      endloop
   endfacet
   facet normal 0.000000e+00 -1.000000e+00 0.000000e+00
      outer loop
         vertex 9.151506e-01 0.000000e+00 2.116598e+00
         vertex 1.345820e+00 0.000000e+00 1.587234e+00
         vertex 5.000000e+00 0.000000e+00 5.000000e+00
      endloop
   endfacet
   facet normal 0.000000e+00 -1.000000e+00 0.000000e+00
      outer loop
         vertex 5.000000e+00 0.000000e+00 5.000000e+00
         vertex 1.345820e+00 0.000000e+00 1.587234e+00
         vertex 1.844560e+00 0.000000e+00 1.121443e+00
      endloop
   endfacet
   facet normal 0.000000e+00 -1.000000e+00 0.000000e+00
      outer loop
         vertex 5.000000e+00 0.000000e+00 5.000000e+00
         vertex 1.844560e+00 0.000000e+00 1.121443e+00
         vertex 2.402080e+00 0.000000e+00 7.279031e-01
      endloop
   endfacet
   facet normal 0.000000e+00 -1.000000e+00 0.000000e+00
      outer loop
         vertex 1.045796e-01 0.000000e+00 3.982720e+00
         vertex 2.886951e-01 0.000000e+00 3.325602e+00
         vertex 5.000000e+00 0.000000e+00 5.000000e+00
      endloop
   endfacet
   facet normal 0.000000e+00 -1.000000e+00 0.000000e+00
      outer loop
         vertex 5.000000e+00 0.000000e+00 5.000000e+00
         vertex 2.886951e-01 0.000000e+00 3.325602e+00
         vertex 5.605738e-01 0.000000e+00 2.699675e+00
      endloop
   endfacet
   facet normal 0.000000e+00 -1.000000e+00 0.000000e+00
      outer loop
         vertex 5.000000e+00 0.000000e+00 5.000000e+00
         vertex 5.605738e-01 0.000000e+00 2.699675e+00
         vertex 9.151506e-01 0.000000e+00 2.116598e+00
      endloop
   endfacet
   facet normal 0.000000e+00 -1.000000e+00 -0.000000e+00
      outer loop
         vertex 1.045796e-01 0.000000e+00 6.017280e+00
         vertex 1.165597e-02 0.000000e+00 5.341212e+00
         vertex 5.000000e+00 0.000000e+00 5.000000e+00
      endloop
   endfacet
   facet normal -0.000000e+00 -1.000000e+00 0.000000e+00
      outer loop
         vertex 5.000000e+00 0.000000e+00 5.000000e+00
         vertex 1.165597e-02 0.000000e+00 5.341212e+00
         vertex 1.165597e-02 0.000000e+00 4.658788e+00
      endloop
   endfacet
   facet normal 0.000000e+00 -1.000000e+00 0.000000e+00
      outer loop
         vertex 5.000000e+00 0.000000e+00 5.000000e+00
         vertex 1.165597e-02 0.000000e+00 4.658788e+00
         vertex 1.045796e-01 0.000000e+00 3.982720e+00
      endloop
   endfacet
   facet normal 0.000000e+00 -1.000000e+00 -0.000000e+00
      outer loop
         vertex 9.151506e-01 0.000000e+00 7.883402e+00
         vertex 5.605738e-01 0.000000e+00 7.300325e+00
         vertex 5.000000e+00 0.000000e+00 5.000000e+00
      endloop
   endfacet
   facet normal 0.000000e+00 -1.000000e+00 0.000000e+00
      outer loop
         vertex 5.000000e+00 0.000000e+00 5.000000e+00
         vertex 5.605738e-01 0.000000e+00 7.300325e+00
         vertex 2.886951e-01 0.000000e+00 6.674398e+00
      endloop
   endfacet
   facet normal 0.000000e+00 -1.000000e+00 0.000000e+00
      outer loop
         vertex 5.000000e+00 0.000000e+00 5.000000e+00
         vertex 2.886951e-01 0.000000e+00 6.674398e+00
         vertex 1.045796e-01 0.000000e+00 6.017280e+00
      endloop
   endfacet
   facet normal 0.000000e+00 -1.000000e+00 -0.000000e+00
      outer loop
         vertex 2.402080e+00 0.000000e+00 9.272097e+00
         vertex 1.844560e+00 0.000000e+00 8.878556e+00
         vertex 5.000000e+00 0.000000e+00 5.000000e+00
      endloop
   endfacet
   facet normal 0.000000e+00 -1.000000e+00 0.000000e+00
      outer loop
         vertex 5.000000e+00 0.000000e+00 5.000000e+00
         vertex 1.844560e+00 0.000000e+00 8.878556e+00
         vertex 1.345820e+00 0.000000e+00 8.412766e+00
      endloop
   endfacet
   facet normal 0.000000e+00 -1.000000e+00 0.000000e+00
      outer loop
         vertex 5.000000e+00 0.000000e+00 5.000000e+00
         vertex 1.345820e+00 0.000000e+00 8.412766e+00
         vertex 9.151506e-01 0.000000e+00 7.883402e+00
      endloop
   endfacet
   facet normal 0.000000e+00 -1.000000e+00 -0.000000e+00
      outer loop
         vertex 4.319167e+00 0.000000e+00 9.953429e+00
         vertex 3.651016e+00 0.000000e+00 9.814586e+00
         vertex 5.000000e+00 0.000000e+00 5.000000e+00
      endloop
   endfacet
   facet normal 0.000000e+00 -1.000000e+00 0.000000e+00
      outer loop
         vertex 5.000000e+00 0.000000e+00 5.000000e+00
         vertex 3.651016e+00 0.000000e+00 9.814586e+00
         vertex 3.007994e+00 0.000000e+00 9.586056e+00
      endloop
   endfacet
   facet normal 0.000000e+00 -1.000000e+00 0.000000e+00
      outer loop
         vertex 5.000000e+00 0.000000e+00 5.000000e+00
         vertex 3.007994e+00 0.000000e+00 9.586056e+00
         vertex 2.402080e+00 0.000000e+00 9.272097e+00
      endloop
   endfacet
endsolid